<mxfile host="app.diagrams.net" modified="2024-05-20T11:59:01.626Z" agent="Mozilla/5.0 (Windows NT 10.0; Win64; x64) AppleWebKit/537.36 (KHTML, like Gecko) Chrome/124.0.0.0 Safari/537.36" version="24.4.4" etag="KbszbD530myn46fHWAVK" type="github">
  <diagram name="Page-1" id="yuNEhOgSnr3Oh5xY5U7N">
    <mxGraphModel>
      <root>
        <mxCell id="0" />
        <mxCell id="1" parent="0" />
      </root>
    </mxGraphModel>
  </diagram>
</mxfile>
